<svg xmlns="http://www.w3.org/2000/svg" viewBox="1717 46 20.003 20.001"><path d="M1717.001 55.998a10 10 0 1 0 2.93-7.07 9.6 9.6 0 0 0-2.93 7.07zm19.17 0a8.8 8.8 0 0 1-2.16 5.86c-1.38-.54-2.87-1.06-4.47-1.54a.743.743 0 0 1-.1-.53 3.039 3.039 0 0 1 .29-1.1 6.138 6.138 0 0 0 .44-1.54 3.529 3.529 0 0 0 .67-1.54 3.285 3.285 0 0 0 0-1.34.139.139 0 0 0-.05-.1 4.366 4.366 0 0 1 .14-1.83 3.078 3.078 0 0 0-.72-2.5 3.44 3.44 0 0 0-2.78-1.34h-.87a3.639 3.639 0 0 0-2.79 1.34 3.077 3.077 0 0 0-.72 2.5 4.6 4.6 0 0 1 .15 1.83v.1a2.586 2.586 0 0 0-.05 1.34 4.353 4.353 0 0 0 .67 1.59 7.24 7.24 0 0 0 .43 1.49 2.642 2.642 0 0 1 .2 1.15.544.544 0 0 1-.15.48 30.461 30.461 0 0 0-4.32 1.54 9.158 9.158 0 1 1 16.19-5.86z" fill="#252626" fill-rule="evenodd"/></svg>